<svg version="1.1" id="Layer_1" xmlns="http://www.w3.org/2000/svg" 
	 viewBox="0 0 532 600">
<path fill="#FFFFFF" d="M532.2,164c0,90.7,0,181.3,0,272c-0.3,1.6-0.6,3.2-1.1,4.8c-2.2,8.6-6.6,16.1-14.2,20.6
	c-72.3,41.8-144.7,83.3-217.1,124.9c-9.3,5.3-18.1,12.1-29.1,13.8c-2.8,0-5.7,0-8.5,0c-8.1-1.1-14.8-5.3-21.6-9.3
	c-3.8-2.2-7.6-4.4-11.5-6.6c-70.3-40.4-140.7-80.8-211-121.3c-6.2-3.6-11.1-8.6-14-15.2c-1.5-3.4-2.3-7.1-3.5-10.6
	c0-91.3,0-182.7,0-274c0.2-0.5,0.4-1.1,0.5-1.6c2.1-10.8,7.9-18.9,17.4-24.4c5.3-3,10.5-6.1,15.8-9.1
	c71.5-41.1,143-82.2,214.5-123.2c2.4-1.4,5-2.3,7.6-3.2c1.7-0.6,3.5-1,5.3-1.4c3,0,6,0,9,0c4,1.3,8.2,1.6,12,3.8
	C359.9,48.3,437.1,92.6,514.4,137c7.9,4.5,13,11.1,15.9,19.6C531.2,159,531.6,161.5,532.2,164z M12.9,425.5c1.1-0.9,1.6-1.3,2.1-1.7
	c30.8-26.6,61.7-53.2,92.4-79.9c1.4-1.2,2.5-3,3.1-4.7c3.3-8.5,6.4-17,9.5-25.5c1.8-5,4.1-10,5-15.1c2.6-14.8,4.6-29.8,6.8-44.7
	c0.3-2.2,1.2-3.5,3-4.7c13.3-8.7,26.5-17.6,39.8-26.3c1.3-0.8,2-1.7,2.2-3.3c1.6-12.4,3.2-24.8,5-37.1c0.5-3.7,0.7-7.8,2.6-10.7
	c8-12.5,16.7-24.7,25.1-37c0.9-1.3,1.7-1.6,3.3-1.5c14.6,1.5,29.2,3,43.8,4.3c3.3,0.3,5.9,1.5,8.2,3.7c8.5,8.7,17.1,17.3,25.7,25.9
	c14,14.2,28,28.5,42.1,42.7c0.3,0.3,0.8,0.5,0.9,0.8c0.8,2.1,1.3,4.3,2.2,6.4c14.2,33.2,28.4,66.4,42.7,99.5
	c0.6,1.5,1.7,2.9,2.9,3.9c17.2,14.2,34.5,28.3,51.8,42.4c0.8,0.7,1.8,1.2,2.8,1.5c24.6,8.6,49.2,17.1,73.7,25.6
	c3.4,1.2,6.7,2.3,10.4,3.6c0-1.3,0-2.2,0-3.1c0-74.2,0-148.5,0-222.7c0-9.1-4-15.9-11.8-20.3c-76.6-44.1-153.2-88.1-229.9-132.1
	c-7.8-4.5-15.7-4.5-23.5,0c-76.6,44-153.1,88-229.7,132c-8.1,4.6-12,11.7-12,21c0,84.6,0,169.1,0,253.7
	C12.9,423.1,12.9,423.9,12.9,425.5z M430.5,374.9c-44.3,46-88.3,91.7-132.4,137.4c0.5,0.3,0.7,0.5,1,0.6
	c14.2,5.7,28.4,11.3,42.7,16.9c0.9,0.3,2.3,0,3.1-0.5c38.7-22.6,77.3-45.2,115.9-67.8c0.5-0.3,1-0.7,1.6-1.2
	C451.9,431.9,441.2,403.6,430.5,374.9z M213.5,440.6c25.4,22.3,50.4,44.2,75.7,66.5c20.2-54,40.3-107.6,60.7-162
	C304.1,377.2,258.9,408.8,213.5,440.6z M110,352.5c-0.8,0.6-1.4,1-1.9,1.4c-31.1,26.9-62.2,53.8-93.3,80.7c-0.7,0.6-1.6,1.8-1.3,2.3
	c0.3,0.8,1.4,1.4,2.3,1.7c36,10.2,72,20.3,108,30.4c0.8,0.2,1.5,0.4,2.7,0.6C121,430.5,115.6,391.7,110,352.5z M302,495.8
	c0.2,0.1,0.4,0.2,0.5,0.3c40.8-42.4,81.6-84.7,122.6-127.3c-21.7-9.8-43.1-19.3-64.7-29.1C341,391.9,321.5,443.8,302,495.8z
	 M341.6,341.1c-1,0-1.3,0-1.6,0c-18.7,2.8-37.4,5.6-56,8.4c-18.3,2.8-36.5,5.6-54.8,8.3c-1.8,0.3-2.2,1-2.6,2.6
	c-3.8,20.1-7.8,40.2-11.7,60.3c-0.6,3.3-1.2,6.6-2,10.5C256,401.1,298.5,371.3,341.6,341.1z M281.5,511c-24.3-21.3-48-42.1-72-63.2
	c-5.1,24.8-10,48.9-15,73.5C223.6,517.9,252.2,514.5,281.5,511z M438.8,374.1c10.3,27.4,20.3,54.1,30.3,81c0.7-0.6,1.1-0.9,1.4-1.2
	c8.2-7.7,16.4-15.4,24.5-23.1c7.7-7.2,15.4-14.5,23.1-21.7c3-2.8,2.2-6.6-1.5-7.9c-18.3-6.4-36.6-12.7-54.9-19.1
	C454.4,379.5,446.9,376.9,438.8,374.1z M295.8,248.5c2.6,15.5,5.1,30.6,7.5,45.7c0.3,1.7,1.2,2.3,2.7,2.7c17.1,5,34.2,10,51.3,15
	c3.7,1.1,7.4,2.1,11.3,3.2c-0.1-0.4-0.1-0.5-0.1-0.6c-8.7-20.5-17.4-41-26.2-61.5c-0.3-0.8-1.7-1.4-2.6-1.5
	c-11-0.9-22.1-1.6-33.1-2.4C303,248.9,299.5,248.7,295.8,248.5z M253.8,584.1c8.7,4.8,16.8,4.8,24.9,0.1
	c52.4-30.2,104.9-60.3,157.4-90.5c23.9-13.7,47.8-27.5,71.7-41.2c5.8-3.3,10.2-8,11.3-14.5c1-6.1,0.7-12.5,1-18.8
	c-1.1,0.2-1.5,0.5-1.9,0.9c-12.7,11.9-25.3,23.9-38.1,35.7c-4.2,4-8.3,8.4-13.2,11.3c-42.4,25.1-85,49.9-127.5,74.7
	c-20.1,11.7-40,23.6-61.7,32.1C269.8,577,262.1,580.5,253.8,584.1z M198.2,371.1c6.4-16.4,12.6-32.3,19-48.5
	c-25.8-4.8-51.2-9.5-77.3-14.4C159.5,329.5,178.7,350.1,198.2,371.1z M346.1,332.1c-0.4-0.4-0.4-0.6-0.6-0.7
	c-14.7-8.9-29.5-17.8-44.2-26.6c-0.6-0.3-1.7-0.2-2.4,0.2c-2.2,1.2-4.2,2.6-6.3,4c-18.3,11.6-36.9,22.6-52.8,37.5
	c-0.6,0.5-1.2,1.1-2.3,2.1C274.1,343,310,337.6,346.1,332.1z M119.1,356.3c-0.2,0.1-0.3,0.2-0.5,0.3c4.9,34.8,9.8,69.5,14.8,105
	c0.6-1.1,0.9-1.6,1.2-2.1c8.9-18.1,17.7-36.3,26.6-54.4c1-2,1-3.2-0.7-4.9c-8.2-8.5-16.2-17.2-24.3-25.8
	C130.6,368.3,124.9,362.3,119.1,356.3z M142.9,253.5c23.2,17.7,46,35.2,68.9,52.7c0.1-0.1,0.3-0.2,0.4-0.4
	c-11.2-25.3-22.4-50.6-33.7-76.1C166.6,237.7,155,245.5,142.9,253.5z M237.2,246.7c-16.5-5.4-32.8-10.8-49.7-16.3
	c11.4,25.7,22.6,51,34.1,77C227,286.8,232.1,266.9,237.2,246.7z M317.4,206.1c-18.7-18.9-36.8-37.2-55.2-55.9
	c-2.7,15.7-5.4,30.9-8.1,46.3C275.1,199.7,295.9,202.8,317.4,206.1z M19.9,448.1c-0.1,0.2-0.2,0.4-0.3,0.6c1.8,1.3,3.6,2.7,5.5,3.8
	c25.5,14.7,51.1,29.4,76.6,44.1c3.1,1.8,5.9,1.3,8.1-1.4c1.7-2,3.4-4.1,5.1-6.2c3.1-3.8,6.2-7.6,9.5-11.6
	C89.3,467.6,54.6,457.9,19.9,448.1z M138.9,260.6c-2,13.1-3.9,25.6-5.8,38.3c24.4,4.5,48.6,9,72.8,13.6c0.1-0.1,0.1-0.2,0.2-0.4
	C183.9,295,161.6,278,138.9,260.6z M172.8,446c-12,10-23.5,19.6-35.2,29.3c15.4,13.4,30.5,26.6,46.2,40.3
	C180.1,492.2,176.5,469.4,172.8,446z M130.1,309.6c-4.1,11.2-8.1,21.8-12,32.6c22.1,8.7,43.9,17.2,65.7,25.8
	c0.1-0.1,0.1-0.3,0.2-0.4C166.1,348.4,148.3,329.2,130.1,309.6z M248.1,255.4c3.9,22,7.7,43.3,11.6,64.9
	c11.5-7.3,22.6-14.4,34.2-21.8c-2.8-1.9-5.3-3.6-7.8-5.3c0.4-0.2,0.8-0.3,1.3-0.6C274.3,280.3,261.5,268.1,248.1,255.4z
	 M291.3,520.3c-12.2,19.9-25.2,38.7-40.6,56c21.6-9.5,44.1-17,64.2-30C307.1,537.8,299.4,529.3,291.3,520.3z M240.2,576.2
	c6.9-8.5,13.7-16.7,20.7-25.2c-20.2-5.9-40.1-11.8-60.5-17.8c0.5,0.8,0.6,1.1,0.8,1.4c8.5,11.1,17,22.2,25.5,33.3
	c0.3,0.5,0.7,0.9,1.2,1.2C232,571.5,236,573.8,240.2,576.2z M190,180.6c-1.7,12.6-3.3,24.8-4.9,37.3c17.7-6.1,34.9-12.1,52.8-18.3
	C221.7,193.2,206,187,190,180.6z M210.6,527.5c0,0.1,0,0.3,0,0.4c0.4,0.1,0.7,0.3,1.1,0.4c17.6,5.2,35.2,10.3,52.8,15.6
	c1.5,0.4,2.1-0.2,2.8-1.2c2.5-3.8,5-7.7,7.5-11.5c2.6-3.9,5.2-7.9,8-12.2C258.4,521.8,234.5,524.6,210.6,527.5z M319.4,214.5
	c-19.8-3-39.1-5.9-58.4-8.8c-0.1,0.2-0.1,0.3-0.2,0.5c10.1,10.8,20.2,21.5,30.4,32.3C300.7,230.5,309.8,222.7,319.4,214.5z
	 M130.1,355.5c-0.1,0.1-0.1,0.2-0.2,0.3c12.6,13.4,25.2,26.8,38,40.4c7.7-5.5,15.3-10.9,23.4-16.6
	C170.6,371.5,150.4,363.5,130.1,355.5z M244.4,205.9c-17.3,6-34.1,11.8-51.5,17.9c15.7,5.1,30.7,10,46,15.1
	C240.7,227.7,242.5,217,244.4,205.9z M287.6,248.3c-11.8,0-23.3,0-35.3,0c14.1,13.4,27.8,26.4,41.9,39.9
	C291.9,274.5,289.8,261.4,287.6,248.3z M227.6,316.6c8.1,1.7,16,3.4,24.2,5.2c-3.5-19.5-6.9-38.6-10.3-57.6c-0.2,0-0.3,0-0.5,0
	C236.6,281.5,232.2,298.8,227.6,316.6z M180.4,442.7c3.2,20,6.3,39.7,9.4,59.3c0.2,0,0.3,0,0.5,0.1c4-19.3,7.9-38.6,11.9-58.1
	C194.9,443.6,187.8,443.2,180.4,442.7z M116.8,499.3c18.5,5.8,36.4,11.4,54.4,17c0.1-0.2,0.2-0.5,0.3-0.7
	c-13.2-11.5-26.4-23-39.7-34.6C126.9,487,122.1,492.9,116.8,499.3z M143.8,459.1c0.1,0.1,0.3,0.2,0.4,0.3c9.2-7.7,18.4-15.3,27.6-23
	c0.3-0.3,0.6-0.6,0.8-0.9c3.3-6.7,6.5-13.4,9.8-20.3c-4.5-2.6-8.8-5.2-13.4-7.9C160.6,424.7,152.2,441.9,143.8,459.1z M327.2,218.4
	c-8.8,7.5-17.3,14.7-26.2,22.4c12.7,0.9,24.7,1.7,37.1,2.5C334.4,234.8,330.9,226.8,327.2,218.4z M212.5,144.4
	c-6.1,8.9-11.9,17.4-18,26.3c11.7-0.4,23-0.8,34.7-1.3C223.5,161,218.1,152.8,212.5,144.4z M156.4,520c-0.1,0.2-0.2,0.4-0.4,0.5
	c17.5,12.1,32.8,27.3,52.4,37.3c-0.3-0.8-0.4-1-0.5-1.2c-6.7-8.7-13.4-17.5-20.1-26.2c-0.5-0.6-1.2-1.2-1.9-1.4
	C176.1,526,166.2,523,156.4,520z M236.7,166.2c5.3-7.2,10.3-14,15.5-21c-10.7-1-20.9-2-31.5-3.1C226.1,150.2,231.2,158,236.7,166.2z
	 M265.3,222.6c-4.8,5.8-9.5,11.4-14.4,17.2c10.4,0,20.3,0,30.6,0C275.9,234,270.7,228.4,265.3,222.6z M217,367.7
	c-0.1-0.1-0.2-0.3-0.3-0.4c-4.1,4.1-8.2,8.2-12.3,12.3c-0.4,0.4-0.3,1.2-0.3,1.9c1.2,10.5,2.4,21,3.6,31.4c0.2,0,0.3,0,0.5,0
	C211.2,397.8,214.1,382.8,217,367.7z M247.9,329.2c-6.3-1.4-12-2.6-17.8-3.8c-2.6-0.6-3.2-0.2-3.2,2.6c0.1,5.6,0.2,11.1,0.4,16.7
	c0,0.3,0.2,0.7,0.5,1.2C234.4,340.4,241,334.9,247.9,329.2z M404.3,350.6c0.1-0.1,0.2-0.3,0.3-0.4c-9.6-7.9-19.2-15.7-28.9-23.6
	c-3.2,2.3-6.1,4.5-9.4,7C379.2,339.4,391.7,345,404.3,350.6z M241.3,192.3c-2.5-5.2-4.7-9.7-7-14.2c-0.2-0.4-1.2-0.7-1.8-0.7
	c-7.6,0.2-15.1,0.4-22.7,0.7c-0.9,0-1.7,0.2-2.6,0.3c0,0.1,0,0.3,0,0.4C218.4,183.2,229.5,187.7,241.3,192.3z M358,329.5
	c2.9-2.1,5.6-4.2,8.8-6.5c-12.4-3.6-24.3-7.1-36.2-10.6c-0.1,0.2-0.1,0.3-0.2,0.5C339.6,318.4,348.8,324,358,329.5z M334.3,535.5
	c-9.6-3.8-18.7-7.4-27.8-11.1c-0.1,0.1-0.2,0.2-0.3,0.4c5.3,5.9,10.7,11.7,16,17.7C326.3,540.2,330,538,334.3,535.5z M247.6,186.9
	c1.7-9.7,3.3-18.8,4.9-27.8c-3.9,4.5-7.4,9.2-10.8,14c-0.2,0.3-0.2,1-0.1,1.3C243.5,178.3,245.4,182.3,247.6,186.9z M191.5,390
	c-0.2-0.1-0.3-0.2-0.5-0.3c-5.3,3.8-10.7,7.7-16.3,11.7c3.8,2.2,7.2,4.2,10.7,6.3C187.5,401.5,189.5,395.7,191.5,390z M181.9,434.8
	c5.8,0.3,11,0.6,16.9,0.9c-3.7-5-6.9-9.6-10.4-14.4C186.2,425.9,184.1,430.2,181.9,434.8z M200.7,424.6c0.1-0.1,0.3-0.1,0.4-0.2
	c-1.1-8.9-2.1-17.8-3.2-26.7c-2.2,4.8-3.8,9.5-5.4,14.3c-0.1,0.4-0.1,1.1,0.1,1.4C195.2,417.2,198,420.9,200.7,424.6z M248.6,229.2
	c0.2,0.1,0.3,0.2,0.5,0.2c3.5-4.2,7.1-8.4,10.6-12.7c-2.5-2.7-4.9-5.2-7.7-8.2C250.9,215.8,249.7,222.5,248.6,229.2z M210.8,361.1
	c0.2,0.1,0.3,0.2,0.5,0.3c2.6-2.7,5.2-5.3,7.8-8c0.3-0.3,0.6-0.9,0.6-1.3c0-3.8,0-7.6,0-11.4c-0.3,0-0.6-0.1-0.8-0.1
	C216.1,347.5,213.4,354.3,210.8,361.1z M138.3,517.6c-2.8-2.9-5.6-5.7-10.6-6.1C131.6,513.8,134.9,515.7,138.3,517.6z"/>
</svg>
